<?xml version="1.0" encoding="UTF-8"?>
<svg version="1.1" viewBox="0 0 1920 1392" width="480" height="348" xmlns="http://www.w3.org/2000/svg">
<path transform="translate(906)" d="m0 0h110l56 6 44 6 43 8 31 7 44 12 38 12 38 14 29 12 33 15 32 16 21 11 27 16 20 12 17 11 12 8 17 12 19 14 28 22 13 11 14 12 10 9 8 7 15 14 13 12 6 6v2h2l7 8 7 7 7 8 13 14 7 8 11 13 9 11 11 14 16 21 12 17 26 39 13 21 12 21 12 22 17 33 15 33 12 29 11 29 12 35 12 42 8 32 8 39 6 36 6 49 4 44v93l-5 56-6 46-6 36-9 42-12 45-13 41-14 38-14 34-12 27-8 16-1 3-5-1-852-426-5-1-852 426-5 2-8-15-13-28-16-39-12-32-15-48-10-38-7-30-7-37-7-49-4-39-2-23v-106l6-58 4-30 7-41 9-41 7-28 10-34 12-36 14-37 12-28 12-26 16-32 9-17 14-24 9-15 13-21 17-25 12-17 16-21 11-14 13-16 13-15 12-14 8-8 7-8 15-16 12-12 8-7 17-16 10-9 8-7 14-12 14-11 15-12 19-14 18-13 38-25 20-12 26-15 28-15 35-17 30-13 33-13 28-10 31-10 44-12 35-8 43-8 42-6 47-5z" fill="#F2F5FA"/>
</svg>
